# Unity3D Mesh Exporter
v 0.261914 1.038853 -0.2921626
v 0.2410021 0.9824314 -0.3610438
v 0.3764572 1.051396 -0.3900806
v 0.3048088 1.034687 -0.3105682
v 0.287039 1.119539 -0.1797821
v 0.1392831 1.089233 -0.1615498
v 0.2883681 1.068613 -0.2901511
v 0.1173139 1.07829 -0.1565832
v 0.03580729 1.032482 -0.2368115
v -1.239234 0.7331779 0.9631681
v -1.407738 0.7306567 0.1833527
v 0.539295 0.7230771 -0.2504043
v 0.7047933 0.7254467 0.5295121
v 0.5389087 0.7225531 -0.2595052
v -1.234328 0.7340752 0.9561379
v 2.84394 0.7210481 0.8537807
v 2.6707 0.7217993 0.08019596
v 0.7047805 0.7245557 0.5332531
v 0.7185056 0.732336 0.5300816
v 0.89534 0.7265745 1.291896
v 2.832662 0.7120054 0.8502558
v -1.231549 0.7335922 0.9522257
v -1.060717 0.7293763 1.744723
v 0.8841699 0.7241381 1.294358
v 0.892061 0.736801 1.288047
v 0.7186489 0.7325037 0.5325517
v -1.237772 0.7325515 0.9441963
v -0.8509166 0.7347472 3.237182
v 3.104045 0.72343 2.371925
v 3.264328 0.7203999 3.152981
v -0.8479836 0.7405295 3.225034
v -0.67586 0.735514 4.00629
v 3.268157 0.7149557 3.156413
v 3.812268 0.7284733 5.396368
v -0.2693727 0.7449749 5.358709
v -0.1158753 0.7373453 6.148357
v -0.2781959 0.73471 5.371458
v 3.667504 0.7262895 4.618391
v 3.803808 0.7221612 5.401314
v 1.663417 -0.005138896 4.476144
v 1.14593 -0.0007275343 4.220796
v 1.148826 -0.003724128 4.653064
v 3.736837 -0.003541507 3.938937
v 4.028387 -0.004361235 3.961735
v 3.835624 -0.002104156 4.166929
v 5.581651 1.403053 3.621739
v 5.549342 1.576858 3.45823
v 5.586324 1.545665 3.638371
v 5.119188 1.536586 2.609541
v 5.361391 1.522031 2.565202
v 5.423102 1.521412 2.869699
v 5.400678 1.324344 2.72054
v 5.385881 1.462571 2.681115
v 5.43096 1.442588 2.875916
v 5.187666 1.336219 2.596872
v 5.119351 1.452258 2.609456
v 5.249464 1.451267 2.581502
v 4.938127 1.403313 2.534624
v 4.915755 1.521205 2.425992
v 4.942484 1.503493 2.547069
v 5.068451 1.36387 2.289628
v 5.139474 1.514454 2.277795
v 4.999279 1.490202 2.309463
v 5.231038 1.623371 2.041211
v 5.276217 1.614655 2.245398
v 5.034958 1.585865 2.300029
v 4.990876 1.212453 2.307833
v 5.130394 1.318062 2.274841
v 4.931848 1.343829 2.318944
v 5.250543 1.268955 2.142474
v 5.232548 1.55416 2.032927
v 5.268712 1.539772 2.220106
v 4.985203 1.386241 0.9049253
v 4.855154 1.651442 0.2922513
v 5.097257 1.62539 1.400161
v 1.894132 1.149724 3.686932
v 3.814795 1.06546 6.716291
v 4.753552 1.233105 0.03411576
v 0.2629244 1.418406 0.2179075
v 0.314382 0.9682832 -0.2678839
v 0.2929224 0.9092808 -0.2003927
v -0.3908195 1.114361 -0.3640964
v -0.4160335 1.079046 -0.3782455
v -0.4314947 1.014284 -0.3970813
v 6.756859 0.9555376 -0.06472876
v 6.674527 1.036113 -0.04467107
v 6.640962 1.067953 -0.05334522
v 10.7981 -0.02020515 -1.530661
v 9.333899 -0.03659291 2.844436
v 4.661423 0.03073018 -0.6853483
v 10.81441 1.327354 4.842533
v 11.01142 1.572012 4.945353
v 10.76942 1.53721 4.816204
v 10.39146 1.51904 5.077634
v 10.35266 1.74253 5.151968
v 10.50462 1.694107 4.856844
v 10.99727 1.891878 5.48012
v 11.00274 1.555191 5.467029
v 11.19562 1.546809 5.091117
v 11.10041 1.095812 5.264228
v 10.74414 1.418467 5.942744
v 11.19736 1.452661 5.082522
v 9.851478 1.385788 7.647341
v 10.73832 1.380421 5.935906
v 10.68951 1.218229 6.050681
v 10.73643 -0.09264803 5.952984
v 10.73296 1.3826 5.941792
v 9.846963 1.386647 7.647163
v 11.20569 0.5431774 5.038797
v 11.20624 -0.1599518 5.035096
v 11.0021 -0.1494457 5.960176
v 10.92375 0.7459968 5.572513
v 11.20008 0.7120362 5.043448
v 11.20819 -0.1544746 5.039542
v 10.95436 1.173499 4.885562
v 11.20135 1.119115 5.036726
v 11.12602 1.057995 5.168906
v 8.346763 0.119538 3.713646
v 8.375431 0.1206475 3.898165
v 8.17924 0.1185681 3.783686
v 8.09505 0.2373417 4.033985
v 8.126561 0.2400602 4.215679
v 7.985768 0.241858 4.1106
v 7.894473 0.3565529 4.359019
v 8.02103 0.3567577 4.568664
v 7.815585 0.3587274 4.453375
v 7.725149 0.4767811 4.722582
v 7.767885 0.479717 4.91452
v 7.642724 0.4789697 4.796488
v 7.546741 0.6005511 5.09058
v 7.627865 0.6009814 5.276581
v 7.473143 0.5987579 5.183906
v 7.360054 0.7175571 5.429606
v 7.417592 0.7185152 5.612124
v 7.27531 0.7173549 5.503115
v 7.129404 0.8177413 5.756276
v 7.238961 0.8179653 5.976745
v 7.098486 0.8181105 5.899525
v 6.938458 0.9351059 6.109231
v 7.047124 0.9373151 6.343934
v 6.870236 0.9361605 6.277176
v 6.776934 1.050413 6.507863
v 6.844636 1.050204 6.715775
v 6.733192 1.051443 6.675811
v 6.590537 1.176593 6.862786
v 6.670845 1.17707 7.031612
v 6.536008 1.171524 6.998745
v 6.424828 1.278864 7.142494
v 6.551105 1.278191 7.371814
v 6.35539 1.280702 7.302985
v 6.456693 1.372132 7.781491
v 6.082804 1.372738 7.940981
v 6.069085 1.37511 7.558808
v 8.488491 1.373654 10.19934
v 8.690533 1.373534 9.862398
v 7.917067 1.375141 9.457073
v 8.638462 3.100632 9.876306
v 8.682682 1.37511 9.85859
v 7.902953 1.36397 9.449112
v 7.912072 2.912867 9.491491
v 7.913283 1.364005 9.434872
v 7.73963 1.360764 9.766667
v 7.778222 2.976609 9.765863
v 8.473668 1.355792 10.17792
v 7.716344 1.350148 9.756195
v 7.991311 1.358682 8.908315
v 8.291571 1.35936 8.412241
v 9.144355 1.359934 8.905614
v 10.70564 1.372069 5.905467
v 9.185778 1.373821 8.871237
v 8.580017 1.357907 8.549535
v 8.555246 1.362225 8.582406
v 10.12405 1.377189 5.59262
v 10.7066 1.379451 5.905385
v 10.10712 0.3479468 5.598274
v 10.11581 1.362461 5.602629
v 8.562147 1.34821 8.554358
v 10.44521 2.1328 5.791216
v 10.30371 2.287985 5.716865
v 10.48219 2.270898 5.805385
v 10.68616 2.264224 5.917854
v 10.10642 2.518861 5.609124
v 10.10525 1.381695 5.606761
v 10.45903 2.181567 4.9099
v 10.09787 2.487888 5.605484
v 10.10367 1.375249 5.599577
v 10.39699 1.420214 5.047791
v 10.57239 1.969987 4.707371
v 10.57867 0.1124287 4.706036
v 10.98353 1.761111 4.894151
v 10.57282 1.808821 4.704721
v 10.57684 -0.1308198 4.715241
v 9.633711 0.1163888 4.35805
v 10.55118 0.1303426 4.701617
v 10.2796 0.1280986 5.01525
v 5.773948 0.1226685 2.686583
v 5.958104 0.1166239 2.314578
v 10.55813 0.110171 4.714306
v 6.522824 0.3712581 3.517642
v 6.700386 0.2538363 3.465925
v 6.658771 0.2483926 3.301445
v 6.479645 0.2487722 3.347121
v 6.650544 0.2431858 3.298875
v 6.704293 0.2549583 3.46534
v 6.685964 2.12257 3.338586
v 6.655828 2.130377 3.304294
v 6.653391 0.2489149 3.299563
v 6.503489 2.142316 3.497253
v 6.546104 2.127753 3.51959
v 6.525257 0.3577454 3.50367
v 10.25097 -0.02260833 -1.413859
v 10.44646 -0.02338757 -1.755711
v 10.80171 -0.03483994 -1.563153
v 6.780402 -0.004649617 -3.604864
v 6.226728 0.00603848 -3.432809
v 6.594304 0.004575484 -3.233982
v 6.223899 -0.009183958 -3.425718
v 6.42418 -0.002065152 -3.783194
v 6.782865 -0.005666345 -3.604292
v 11.47388 1.569787 -1.850804
v 11.47931 0.479126 -1.857207
v 2.637528 0.4745559 -6.412329
v 3.987879 0.254954 2.078632
v 3.756247 0.2518064 1.95675
v 3.921282 0.2441442 1.890653
v 3.977286 1.746778 2.077696
v 3.994744 1.737381 2.041799
v 3.988672 0.2501902 2.079262
v 3.83531 1.620981 1.886736
v 3.749436 0.250812 1.966751
v 3.761572 0.2506054 1.946888
v 3.758381 1.594146 1.956656
v 3.771971 0.2544356 1.940895
v 3.75119 0.2527049 1.982082
v 6.444802 0.2451055 3.163039
v 5.629398 0.2568252 3.055137
v 5.817424 0.247489 2.700081
v 6.23918 0.3566302 3.544574
v 5.441132 0.3618187 3.410716
v 5.631822 0.3568334 3.066958
v 5.764045 0.4740816 3.730575
v 5.257003 0.475584 3.775587
v 5.433904 0.4628516 3.424435
v 5.629623 0.5931374 4.215037
v 5.079873 0.5903731 4.131488
v 5.266363 0.5878644 3.771987
v 5.413789 0.7111806 4.497464
v 4.890551 0.7137361 4.488993
v 5.077704 0.7086813 4.140234
v 5.109969 0.8203635 4.816518
v 4.711788 0.8292848 4.854066
v 4.897611 0.8229837 4.497648
v 4.967865 0.9427921 5.185205
v 4.531674 0.9466295 5.203097
v 4.72381 0.9379698 4.853235
v 4.799946 1.049103 5.492234
v 4.344088 1.047346 5.55691
v 4.532976 1.042129 5.203179
v 4.570041 1.15961 5.8375
v 4.156519 1.159196 5.899916
v 4.344555 1.154843 5.55401
v 4.48552 1.268068 6.246463
v 3.991457 1.262488 6.217855
v 4.161592 1.257888 5.898897
vn 0.4788321 -0.7448163 0.4647241
vn 0.4788321 -0.7448163 0.4647241
vn 0.4788321 -0.7448163 0.4647241
vn 0.2323758 -0.8012274 0.5513947
vn 0.2323758 -0.8012274 0.5513947
vn 0.2323758 -0.8012274 0.5513947
vn 0.2006862 -0.9245288 0.3239929
vn 0.2006862 -0.9245288 0.3239929
vn 0.2006862 -0.9245288 0.3239929
vn -0.003026944 -0.9999878 0.003887044
vn -0.003026944 -0.9999878 0.003887044
vn -0.003026944 -0.9999878 0.003887044
vn 0.003481724 0.9999843 -0.004399327
vn 0.003481724 0.9999843 -0.004399327
vn 0.003481724 0.9999843 -0.004399327
vn 0.001546104 0.9999986 0.0006247395
vn 0.001546104 0.9999986 0.0006247395
vn 0.001546104 0.9999986 0.0006247395
vn 0.008779226 0.9999462 0.005524685
vn 0.008779226 0.9999462 0.005524685
vn 0.008779226 0.9999462 0.005524685
vn 0.003738477 0.9999828 0.004513875
vn 0.003738477 0.9999828 0.004513875
vn 0.003738477 0.9999828 0.004513875
vn -0.001118348 0.9999846 -0.005431291
vn -0.001118348 0.9999846 -0.005431291
vn -0.001118348 0.9999846 -0.005431291
vn -0.003550811 -0.9999887 -0.003150878
vn -0.003550811 -0.9999887 -0.003150878
vn -0.003550811 -0.9999887 -0.003150878
vn 0.006296759 0.9999675 0.005032296
vn 0.006296759 0.9999675 0.005032296
vn 0.006296759 0.9999675 0.005032296
vn 0.003960656 0.9999526 0.008891636
vn 0.003960656 0.9999526 0.008891636
vn 0.003960656 0.9999526 0.008891636
vn -0.003039432 -0.9999841 -0.004743666
vn -0.003039432 -0.9999841 -0.004743666
vn -0.003039432 -0.9999841 -0.004743666
vn 0.005120681 0.9999631 0.006897696
vn 0.005120681 0.9999631 0.006897696
vn 0.005120681 0.9999631 0.006897696
vn -0.003420365 -0.9999638 0.007786187
vn -0.003420365 -0.9999638 0.007786187
vn -0.003420365 -0.9999638 0.007786187
vn 0.9792452 -0.008470792 -0.2025018
vn 0.9792452 -0.008470792 -0.2025018
vn 0.9792452 -0.008470792 -0.2025018
vn -0.05820071 -0.9982572 0.009764947
vn -0.05820071 -0.9982572 0.009764947
vn -0.05820071 -0.9982572 0.009764947
vn 0.9743472 0.04119698 -0.2212472
vn 0.9743472 0.04119698 -0.2212472
vn 0.9743472 0.04119698 -0.2212472
vn -0.2101517 -0.01771541 -0.9775082
vn -0.2101517 -0.01771541 -0.9775082
vn -0.2101517 -0.01771541 -0.9775082
vn 0.9758956 -0.01540394 -0.2176936
vn 0.9758956 -0.01540394 -0.2176936
vn 0.9758956 -0.01540394 -0.2176936
vn 0.2251107 -0.02964614 0.9738821
vn 0.2251107 -0.02964614 0.9738821
vn 0.2251107 -0.02964614 0.9738821
vn 0.1036471 -0.9924685 -0.06529571
vn 0.1036471 -0.9924685 -0.06529571
vn 0.1036471 -0.9924685 -0.06529571
vn 0.2187698 0.01577833 0.9756489
vn 0.2187698 0.01577833 0.9756489
vn 0.2187698 0.01577833 0.9756489
vn 0.9816189 -0.01124205 -0.1905204
vn 0.9816189 -0.01124205 -0.1905204
vn 0.9816189 -0.01124205 -0.1905204
vn 0.9767643 -0.01493018 -0.2137955
vn 0.9767643 -0.01493018 -0.2137955
vn 0.9767643 -0.01493018 -0.2137955
vn 0.003520129 0.9996667 0.02557459
vn 0.003520129 0.9996667 0.02557459
vn 0.003520129 0.9996667 0.02557459
vn -0.97124 0.1143594 -0.2088418
vn -0.97124 0.1143594 -0.2088418
vn -0.97124 0.1143594 -0.2088418
vn -0.2194119 -0.2238105 0.9496143
vn -0.2194119 -0.2238105 0.9496143
vn -0.2194119 -0.2238105 0.9496143
vn -0.6934155 -0.7192521 0.04302759
vn -0.6934155 -0.7192521 0.04302759
vn -0.6934155 -0.7192521 0.04302759
vn -0.00924156 -0.999934 -0.006838286
vn -0.00924156 -0.999934 -0.006838286
vn -0.00924156 -0.999934 -0.006838286
vn -0.4718488 0.009450738 0.8816288
vn -0.4718488 0.009450738 0.8816288
vn -0.4718488 0.009450738 0.8816288
vn -0.8892168 -0.002228984 -0.4574807
vn -0.8892168 -0.002228984 -0.4574807
vn -0.8892168 -0.002228984 -0.4574807
vn 0.8896796 -0.003303258 0.4565736
vn 0.8896796 -0.003303258 0.4565736
vn 0.8896796 -0.003303258 0.4565736
vn -0.8847656 0.003089191 -0.4660261
vn -0.8847656 0.003089191 -0.4660261
vn -0.8847656 0.003089191 -0.4660261
vn -0.8864475 -0.05814105 -0.4591626
vn -0.8864475 -0.05814105 -0.4591626
vn -0.8864475 -0.05814105 -0.4591626
vn 0.8873783 0.005587618 0.4610082
vn 0.8873783 0.005587618 0.4610082
vn 0.8873783 0.005587618 0.4610082
vn -0.9765063 0.0003699504 -0.2154884
vn -0.9765063 0.0003699504 -0.2154884
vn -0.9765063 0.0003699504 -0.2154884
vn -0.8865292 -0.006216982 -0.4626307
vn -0.8865292 -0.006216982 -0.4626307
vn -0.8865292 -0.006216982 -0.4626307
vn 0.04265096 -0.9158747 -0.3991922
vn 0.04265096 -0.9158747 -0.3991922
vn 0.04265096 -0.9158747 -0.3991922
vn 0.00779702 -0.999958 0.004801043
vn 0.00779702 -0.999958 0.004801043
vn 0.00779702 -0.999958 0.004801043
vn -0.02747877 -0.9994279 0.01971881
vn -0.02747877 -0.9994279 0.01971881
vn -0.02747877 -0.9994279 0.01971881
vn -0.0153255 -0.9998302 0.01022836
vn -0.0153255 -0.9998302 0.01022836
vn -0.0153255 -0.9998302 0.01022836
vn -0.01069856 -0.9997866 0.01767519
vn -0.01069856 -0.9997866 0.01767519
vn -0.01069856 -0.9997866 0.01767519
vn 0.01757397 -0.9998313 -0.005352219
vn 0.01757397 -0.9998313 -0.005352219
vn 0.01757397 -0.9998313 -0.005352219
vn 0.00544891 -0.9999789 0.003531421
vn 0.00544891 -0.9999789 0.003531421
vn 0.00544891 -0.9999789 0.003531421
vn -0.00219085 -0.9999954 0.002104409
vn -0.00219085 -0.9999954 0.002104409
vn -0.00219085 -0.9999954 0.002104409
vn 0.003604558 -0.9999636 0.007743721
vn 0.003604558 -0.9999636 0.007743721
vn 0.003604558 -0.9999636 0.007743721
vn -0.01218084 -0.9999215 0.002962532
vn -0.01218084 -0.9999215 0.002962532
vn -0.01218084 -0.9999215 0.002962532
vn 0.04569116 -0.9987766 -0.01891
vn 0.04569116 -0.9987766 -0.01891
vn 0.04569116 -0.9987766 -0.01891
vn -0.01462532 -0.99988 0.005121546
vn -0.01462532 -0.99988 0.005121546
vn -0.01462532 -0.99988 0.005121546
vn -0.004203901 -0.9999729 -0.006053731
vn -0.004203901 -0.9999729 -0.006053731
vn -0.004203901 -0.9999729 -0.006053731
vn 0.00172264 0.9999983 0.0006770274
vn 0.00172264 0.9999983 0.0006770274
vn 0.00172264 0.9999983 0.0006770274
vn 0.4646035 0.02099522 -0.8852699
vn 0.4646035 0.02099522 -0.8852699
vn 0.4646035 0.02099522 -0.8852699
vn -0.8859379 0.01625146 -0.4635191
vn -0.8859379 0.01625146 -0.4635191
vn -0.8859379 0.01625146 -0.4635191
vn 0.4865445 -0.01331753 -0.8735542
vn 0.4865445 -0.01331753 -0.8735542
vn 0.4865445 -0.01331753 -0.8735542
vn 0.001084 -0.9999991 -0.0007092991
vn 0.001084 -0.9999991 -0.0007092991
vn 0.001084 -0.9999991 -0.0007092991
vn 0.02039879 -0.9997309 0.01104407
vn 0.02039879 -0.9997309 0.01104407
vn 0.02039879 -0.9997309 0.01104407
vn 0.005125828 -0.9999842 -0.002315175
vn 0.005125828 -0.9999842 -0.002315175
vn 0.005125828 -0.9999842 -0.002315175
vn 0.8848817 -0.009582214 0.4657172
vn 0.8848817 -0.009582214 0.4657172
vn 0.8848817 -0.009582214 0.4657172
vn 0.4421478 -0.02639057 -0.896554
vn 0.4421478 -0.02639057 -0.896554
vn 0.4421478 -0.02639057 -0.896554
vn -0.4704985 -0.001349649 0.8823997
vn -0.4704985 -0.001349649 0.8823997
vn -0.4704985 -0.001349649 0.8823997
vn 0.8878915 0.002185083 0.4600478
vn 0.8878915 0.002185083 0.4600478
vn 0.8878915 0.002185083 0.4600478
vn -0.8871739 -0.0026672 -0.4614274
vn -0.8871739 -0.0026672 -0.4614274
vn -0.8871739 -0.0026672 -0.4614274
vn -0.418431 0.004058838 0.9082395
vn -0.418431 0.004058838 0.9082395
vn -0.418431 0.004058838 0.9082395
vn 0.01350684 -0.9998984 0.004541384
vn 0.01350684 -0.9998984 0.004541384
vn 0.01350684 -0.9998984 0.004541384
vn -0.007850831 -0.9998928 0.01236051
vn -0.007850831 -0.9998928 0.01236051
vn -0.007850831 -0.9998928 0.01236051
vn 0.5123662 0.8441868 -0.1575737
vn 0.5123662 0.8441868 -0.1575737
vn 0.5123662 0.8441868 -0.1575737
vn -0.01162791 -0.9971701 0.07427453
vn -0.01162791 -0.9971701 0.07427453
vn -0.01162791 -0.9971701 0.07427453
vn -0.751227 -0.0006867005 0.6600438
vn -0.751227 -0.0006867005 0.6600438
vn -0.751227 -0.0006867005 0.6600438
vn 0.464914 0.002487176 -0.8853524
vn 0.464914 0.002487176 -0.8853524
vn 0.464914 0.002487176 -0.8853524
vn -0.02554228 -0.9995977 -0.01232778
vn -0.02554228 -0.9995977 -0.01232778
vn -0.02554228 -0.9995977 -0.01232778
vn 0.01370919 0.9997442 -0.01798817
vn 0.01370919 0.9997442 -0.01798817
vn 0.01370919 0.9997442 -0.01798817
vn -8.391832E-05 -0.9998009 -0.01995709
vn -8.391832E-05 -0.9998009 -0.01995709
vn -8.391832E-05 -0.9998009 -0.01995709
vn 0.4579616 0.007498537 -0.8889403
vn 0.4579616 0.007498537 -0.8889403
vn 0.4579616 0.007498537 -0.8889403
vn -0.02044253 -0.9977008 0.06461554
vn -0.02044253 -0.9977008 0.06461554
vn -0.02044253 -0.9977008 0.06461554
vn -0.9000167 -0.007303098 -0.4357943
vn -0.9000167 -0.007303098 -0.4357943
vn -0.9000167 -0.007303098 -0.4357943
vn 0.8529875 -0.02300987 0.5214239
vn 0.8529875 -0.02300987 0.5214239
vn 0.8529875 -0.02300987 0.5214239
vn -0.8927251 -0.003754737 -0.450586
vn -0.8927251 -0.003754737 -0.450586
vn -0.8927251 -0.003754737 -0.450586
vn -0.01667843 -0.9997086 0.0174549
vn -0.01667843 -0.9997086 0.0174549
vn -0.01667843 -0.9997086 0.0174549
vn -0.008172824 -0.9999169 0.009967525
vn -0.008172824 -0.9999169 0.009967525
vn -0.008172824 -0.9999169 0.009967525
vn 0.0002674855 -0.9993383 0.03636982
vn 0.0002674855 -0.9993383 0.03636982
vn 0.0002674855 -0.9993383 0.03636982
vn 0.003677605 -0.9999538 0.00888571
vn 0.003677605 -0.9999538 0.00888571
vn 0.003677605 -0.9999538 0.00888571
vn -0.005074135 -0.9999179 0.01176933
vn -0.005074135 -0.9999179 0.01176933
vn -0.005074135 -0.9999179 0.01176933
vn -0.0218046 -0.9997423 0.006306291
vn -0.0218046 -0.9997423 0.006306291
vn -0.0218046 -0.9997423 0.006306291
vn -0.007959845 -0.9997607 0.0203745
vn -0.007959845 -0.9997607 0.0203745
vn -0.007959845 -0.9997607 0.0203745
vn 0.006433586 -0.999814 0.01817908
vn 0.006433586 -0.999814 0.01817908
vn 0.006433586 -0.999814 0.01817908
vn 0.003160055 -0.9998928 0.01429992
vn 0.003160055 -0.9998928 0.01429992
vn 0.003160055 -0.9998928 0.01429992
vn 0.0101447 -0.999752 0.01982945
vn 0.0101447 -0.999752 0.01982945
vn 0.0101447 -0.999752 0.01982945
f 1/1/1 2/2/2 3/3/3
f 4/4/4 5/5/5 6/6/6
f 7/7/7 8/8/8 9/9/9
f 10/10/10 11/11/11 12/12/12
f 13/13/13 14/14/14 15/15/15
f 16/16/16 17/17/17 18/18/18
f 19/19/19 20/20/20 21/21/21
f 22/22/22 23/23/23 24/24/24
f 25/25/25 26/26/26 27/27/27
f 28/28/28 29/29/29 30/30/30
f 31/31/31 32/32/32 33/33/33
f 34/34/34 35/35/35 36/36/36
f 37/37/37 38/38/38 39/39/39
f 40/40/40 41/41/41 42/42/42
f 43/43/43 44/44/44 45/45/45
f 46/46/46 47/47/47 48/48/48
f 49/49/49 50/50/50 51/51/51
f 52/52/52 53/53/53 54/54/54
f 55/55/55 56/56/56 57/57/57
f 58/58/58 59/59/59 60/60/60
f 61/61/61 62/62/62 63/63/63
f 64/64/64 65/65/65 66/66/66
f 67/67/67 68/68/68 69/69/69
f 70/70/70 71/71/71 72/72/72
f 73/73/73 74/74/74 75/75/75
f 76/76/76 77/77/77 78/78/78
f 79/79/79 80/80/80 81/81/81
f 82/82/82 83/83/83 84/84/84
f 85/85/85 86/86/86 87/87/87
f 88/88/88 89/89/89 90/90/90
f 91/91/91 92/92/92 93/93/93
f 94/94/94 95/95/95 96/96/96
f 97/97/97 98/98/98 99/99/99
f 100/100/100 101/101/101 102/102/102
f 103/103/103 104/104/104 105/105/105
f 106/106/106 107/107/107 108/108/108
f 109/109/109 110/110/110 111/111/111
f 112/112/112 113/113/113 114/114/114
f 115/115/115 116/116/116 117/117/117
f 118/118/118 119/119/119 120/120/120
f 121/121/121 122/122/122 123/123/123
f 124/124/124 125/125/125 126/126/126
f 127/127/127 128/128/128 129/129/129
f 130/130/130 131/131/131 132/132/132
f 133/133/133 134/134/134 135/135/135
f 136/136/136 137/137/137 138/138/138
f 139/139/139 140/140/140 141/141/141
f 142/142/142 143/143/143 144/144/144
f 145/145/145 146/146/146 147/147/147
f 148/148/148 149/149/149 150/150/150
f 151/151/151 152/152/152 153/153/153
f 154/154/154 155/155/155 156/156/156
f 157/157/157 158/158/158 159/159/159
f 160/160/160 161/161/161 162/162/162
f 163/163/163 164/164/164 165/165/165
f 166/166/166 167/167/167 168/168/168
f 169/169/169 170/170/170 171/171/171
f 172/172/172 173/173/173 174/174/174
f 175/175/175 176/176/176 177/177/177
f 178/178/178 179/179/179 180/180/180
f 181/181/181 182/182/182 183/183/183
f 184/184/184 185/185/185 186/186/186
f 187/187/187 188/188/188 189/189/189
f 190/190/190 191/191/191 192/192/192
f 193/193/193 194/194/194 195/195/195
f 196/196/196 197/197/197 198/198/198
f 199/199/199 200/200/200 201/201/201
f 202/202/202 203/203/203 204/204/204
f 205/205/205 206/206/206 207/207/207
f 208/208/208 209/209/209 210/210/210
f 211/211/211 212/212/212 213/213/213
f 214/214/214 215/215/215 216/216/216
f 217/217/217 218/218/218 219/219/219
f 220/220/220 221/221/221 222/222/222
f 223/223/223 224/224/224 225/225/225
f 226/226/226 227/227/227 228/228/228
f 229/229/229 230/230/230 231/231/231
f 232/232/232 233/233/233 234/234/234
f 235/235/235 236/236/236 237/237/237
f 238/238/238 239/239/239 240/240/240
f 241/241/241 242/242/242 243/243/243
f 244/244/244 245/245/245 246/246/246
f 247/247/247 248/248/248 249/249/249
f 250/250/250 251/251/251 252/252/252
f 253/253/253 254/254/254 255/255/255
f 256/256/256 257/257/257 258/258/258
f 259/259/259 260/260/260 261/261/261
f 262/262/262 263/263/263 264/264/264
